<svg xmlns="http://www.w3.org/2000/svg" xmlns:xlink="http://www.w3.org/1999/xlink" width="113.054" height="23.088" viewBox="0 0 113.054 23.088"><defs><clipPath id="a"><rect width="113.054" height="23.088" fill="none"/></clipPath></defs><g clip-path="url(#a)"><path d="M13.761,12.839H11.486V9.323a.743.743,0,0,0-.793-.794H7.849v4.31H5.556V4.824A4.362,4.362,0,0,1,6.694,1.842,4.187,4.187,0,0,1,9.763.584a4.044,4.044,0,0,1,4.223,3.861,3.471,3.471,0,0,1-1.242,2.81,2.156,2.156,0,0,1,1.017,1.965V12.84ZM11.693,4.6A1.8,1.8,0,0,0,9.8,2.773,1.9,1.9,0,0,0,7.848,4.824v1.62H9.813A1.712,1.712,0,0,0,11.692,4.6Z" transform="translate(-0.137 -0.015)"/><path d="M24.242,10.092a4.207,4.207,0,0,1-4.291,3.033A4.587,4.587,0,0,1,15.4,8.489a4.618,4.618,0,0,1,4.55-4.672,4.3,4.3,0,0,1,4.362,3.724l-6.275,2.636a2.312,2.312,0,0,0,1.9.948,2.045,2.045,0,0,0,1.878-1.033ZM21.691,6.61a2.233,2.233,0,0,0-1.759-.793,2.463,2.463,0,0,0-2.413,2.551Z" transform="translate(-0.38 -0.094)"/><path d="M34.749,12.918H32.595v-.929a3.572,3.572,0,0,1-2.707,1.12,4.455,4.455,0,0,1-4.258-4.62,4.561,4.561,0,1,1,9.118,0v4.43ZM30.2,5.955a2.39,2.39,0,0,0-2.275,2.551,2.343,2.343,0,0,0,2.275,2.5,2.4,2.4,0,0,0,2.275-2.5A2.443,2.443,0,0,0,30.2,5.955" transform="translate(-0.632 -0.094)"/><path d="M45.617,8.394a4.56,4.56,0,1,1-9.118,0A4.456,4.456,0,0,1,40.74,3.758a3.458,3.458,0,0,1,2.6,1.033V0h2.274Zm-4.55-2.533a2.39,2.39,0,0,0-2.275,2.551,2.343,2.343,0,0,0,2.275,2.5,2.4,2.4,0,0,0,2.275-2.5A2.443,2.443,0,0,0,41.067,5.861Z" transform="translate(-0.901 0)"/><path d="M47.773,3V1.72A1.141,1.141,0,0,1,48.928.582,1.127,1.127,0,0,1,50.067,1.72V3Zm2.294,9.841H47.792V3.961h2.275v8.877Z" transform="translate(-1.179 -0.015)"/><path d="M56.225,3.817a3.705,3.705,0,0,1,3.946,3.965v5.136H57.9V7.73a1.551,1.551,0,0,0-1.672-1.689A1.638,1.638,0,0,0,54.5,7.73v5.188H52.227V7.782a3.819,3.819,0,0,1,4-3.965" transform="translate(-1.289 -0.094)"/><path d="M71.009,12.47c0,2.947-1.759,4.791-4.6,4.791a4.13,4.13,0,0,1-4.31-3.1H64.58a1.991,1.991,0,0,0,1.827.983c1.6,0,2.326-1.051,2.326-2.637v-.4a3.651,3.651,0,0,1-2.585,1,4.455,4.455,0,0,1-4.258-4.62,4.56,4.56,0,1,1,9.118,0V12.47Zm-4.55-6.515a2.39,2.39,0,0,0-2.275,2.551,2.343,2.343,0,0,0,2.275,2.5,2.4,2.4,0,0,0,2.275-2.5,2.443,2.443,0,0,0-2.275-2.551" transform="translate(-1.527 -0.094)"/><path d="M77.94,3v9.843H75.665V3H72.459V.883h8.688V3Z" transform="translate(-1.788 -0.022)"/><path d="M89.254,10.092a4.207,4.207,0,0,1-4.291,3.033,4.587,4.587,0,0,1-4.55-4.637,4.618,4.618,0,0,1,4.55-4.672,4.3,4.3,0,0,1,4.362,3.724l-6.275,2.636a2.312,2.312,0,0,0,1.9.948,2.045,2.045,0,0,0,1.878-1.033ZM86.7,6.61a2.233,2.233,0,0,0-1.759-.793,2.463,2.463,0,0,0-2.413,2.551Z" transform="translate(-1.984 -0.094)"/><path d="M99.761,12.918H97.607v-.929a3.572,3.572,0,0,1-2.707,1.12,4.455,4.455,0,0,1-4.258-4.62,4.561,4.561,0,1,1,9.118,0v4.43Zm-4.55-6.963a2.39,2.39,0,0,0-2.275,2.551,2.343,2.343,0,0,0,2.275,2.5,2.4,2.4,0,0,0,2.275-2.5,2.443,2.443,0,0,0-2.275-2.551" transform="translate(-2.236 -0.094)"/><path d="M115.57,12.919h-2.275V7.731a1.552,1.552,0,0,0-1.671-1.69,1.638,1.638,0,0,0-1.723,1.69v5.188h-2.275V7.731a1.538,1.538,0,0,0-1.655-1.69,1.629,1.629,0,0,0-1.723,1.69v5.188h-2.274V7.783a3.809,3.809,0,0,1,4-3.965A3.564,3.564,0,0,1,108.8,5.076a3.9,3.9,0,0,1,6.774,2.707Z" transform="translate(-2.516 -0.094)"/><path d="M32.6,21.97V18.721h.9v3.234c0,.438.164.623.595.623h1.431v.889H34.094a1.369,1.369,0,0,1-1.491-1.5Z" transform="translate(-0.804 -0.462)"/><rect width="0.903" height="4.748" transform="translate(36.668 18.259)"/><path d="M42.675,19.562v3.905h-.9V19.562H40.5v-.841h3.449v.841Z" transform="translate(-0.999 -0.462)"/><path d="M46.782,20.671H48.7v.841H46.782v.458c0,.438.171.609.6.609h1.67v.889H47.378a1.382,1.382,0,0,1-1.5-1.512V20.233a1.381,1.381,0,0,1,1.5-1.512h1.676v.889h-1.67c-.431,0-.6.164-.6.6Z" transform="translate(-1.132 -0.462)"/><path d="M54.5,23.465h-.9V22.07a.294.294,0,0,0-.315-.315H52.153v1.71h-.909V20.284a1.734,1.734,0,0,1,.451-1.183,1.659,1.659,0,0,1,1.217-.5,1.6,1.6,0,0,1,1.676,1.531,1.373,1.373,0,0,1-.493,1.115.857.857,0,0,1,.4.781v1.436ZM53.68,20.2a.715.715,0,0,0-.752-.725.753.753,0,0,0-.772.813v.644h.78a.679.679,0,0,0,.745-.732Z" transform="translate(-1.264 -0.459)"/><path d="M60.325,23.466h-.9V22.139H57.787v1.327h-.9V20.319a1.713,1.713,0,0,1,.479-1.231,1.83,1.83,0,0,1,2.483,0,1.721,1.721,0,0,1,.479,1.231v3.147Zm-.9-3.168a.817.817,0,0,0-1.635,0v.971h1.635Z" transform="translate(-1.404 -0.459)"/><path d="M64.773,23.547a2.363,2.363,0,0,1-2.3-2.476,2.363,2.363,0,0,1,2.3-2.476,2.153,2.153,0,0,1,2.161,1.58h-.978a1.3,1.3,0,0,0-1.183-.754,1.542,1.542,0,0,0-1.4,1.649,1.548,1.548,0,0,0,1.4,1.654,1.326,1.326,0,0,0,1.183-.766h.971a2.18,2.18,0,0,1-2.155,1.586Z" transform="translate(-1.541 -0.459)"/><path d="M72.4,20.035a1.721,1.721,0,0,1-.479,1.238,1.616,1.616,0,0,1-.787.43v1.764h-.91V21.7a1.621,1.621,0,0,1-.786-.43,1.726,1.726,0,0,1-.48-1.238V18.721h.91v1.334a.814.814,0,1,0,1.628,0V18.721h.9v1.314Z" transform="translate(-1.702 -0.462)"/><path d="M79.18,20.684h1.683v.841H79.18v1.943h-.9V20.234a1.379,1.379,0,0,1,1.491-1.512h1.45v.889H79.776c-.43,0-.6.165-.6.6Z" transform="translate(-1.931 -0.462)"/><path d="M87.755,21.071a2.327,2.327,0,1,1-4.644,0,2.326,2.326,0,1,1,4.644,0m-.909,0a1.426,1.426,0,1,0-1.409,1.621,1.527,1.527,0,0,0,1.409-1.621" transform="translate(-2.051 -0.459)"/><path d="M93.2,23.465h-.9V22.07a.294.294,0,0,0-.315-.315H90.851v1.71h-.909V20.284a1.734,1.734,0,0,1,.451-1.183,1.659,1.659,0,0,1,1.217-.5,1.6,1.6,0,0,1,1.676,1.531,1.373,1.373,0,0,1-.493,1.115.857.857,0,0,1,.4.781v1.436Zm-.82-3.269a.715.715,0,0,0-.752-.725.753.753,0,0,0-.772.813v.644h.78a.679.679,0,0,0,.745-.732Z" transform="translate(-2.219 -0.459)"/><path d="M99.144,21.97V18.721h.9v3.234c0,.438.164.623.595.623h1.431v.889h-1.437a1.369,1.369,0,0,1-1.491-1.5Z" transform="translate(-2.446 -0.462)"/><rect width="0.903" height="4.748" transform="translate(101.569 18.259)"/><path d="M108.267,20.684h1.683v.841h-1.683v1.943h-.9V20.234a1.379,1.379,0,0,1,1.491-1.512h1.45v.889h-1.443c-.43,0-.6.165-.6.6Z" transform="translate(-2.649 -0.462)"/><path d="M113.3,20.671h1.922v.841H113.3v.458c0,.438.171.609.6.609h1.67v.889H113.9a1.381,1.381,0,0,1-1.5-1.512V20.233a1.381,1.381,0,0,1,1.5-1.512h1.676v.889H113.9c-.431,0-.6.164-.6.6Z" transform="translate(-2.773 -0.462)"/><path d="M.841,10.95H4.746v.9H.841v1.273H0V9.677H.841Z" transform="translate(0 -0.239)"/><path d="M4.748,5.554v.9h-2V8.146h2v.91H0v-.91H1.9V6.457H0v-.9Z" transform="translate(0 -0.137)"/><path d="M1.95,3.715V1.792H2.79V3.715h.458c.438,0,.609-.171.609-.6V1.443h.889V3.119a1.382,1.382,0,0,1-1.512,1.5H1.512A1.381,1.381,0,0,1,0,3.119V1.443H.889v1.67c0,.431.164.6.6.6Z" transform="translate(0 -0.036)"/></g></svg>