<svg xmlns="http://www.w3.org/2000/svg" xmlns:xlink="http://www.w3.org/1999/xlink" width="59.5" height="71.349" viewBox="0 0 59.5 71.349"><defs><clipPath id="a"><rect width="59.5" height="71.349" fill="none"/></clipPath></defs><g clip-path="url(#a)"><path d="M25,38.141l-9.3,6.1-.046-.037,5.961-9.655-21.61-4.8C0,29.738,0,29.719,0,29.7l21.38-4.711-6.114-9.325.036-.044L24.953,21.6,29.757,0,29.8,0l4.719,21.38,9.3-6.09.05.048-5.962,9.6L59.5,29.7c0,.019,0,.038,0,.057L38.137,34.5l6.111,9.3-.037.049L34.568,37.9Q32.181,54.66,29.8,71.347l-.048,0Q27.382,54.769,25,38.141" fill="#f7b53f"/></g></svg>